<svg width="142" height="90" viewBox="0 0 142 90" fill="none" xmlns="http://www.w3.org/2000/svg">
<path d="M1.28125 5.14844C1.28125 4.58854 1.30729 4.04167 1.35938 3.50781C1.42448 2.97396 1.5612 2.4987 1.76953 2.08203C1.99089 1.65234 2.31641 1.30729 2.74609 1.04688C3.17578 0.786458 3.76823 0.65625 4.52344 0.65625C5.27865 0.65625 5.87109 0.786458 6.30078 1.04688C6.73047 1.30729 7.04948 1.65234 7.25781 2.08203C7.47917 2.4987 7.61589 2.97396 7.66797 3.50781C7.73307 4.04167 7.76562 4.58854 7.76562 5.14844V23.5078C7.76562 24.0807 7.73958 24.6341 7.6875 25.168C7.63542 25.7018 7.4987 26.1836 7.27734 26.6133C7.06901 27.0299 6.74349 27.3685 6.30078 27.6289C5.87109 27.8763 5.27865 28 4.52344 28C3.76823 28 3.17578 27.8763 2.74609 27.6289C2.31641 27.3685 1.99089 27.0299 1.76953 26.6133C1.5612 26.1836 1.42448 25.7018 1.35938 25.168C1.30729 24.6341 1.28125 24.0807 1.28125 23.5078V5.14844ZM12.5312 15.8125C12.5312 14.6146 12.694 13.599 13.0195 12.7656C13.3451 11.9323 13.7617 11.2357 14.2695 10.6758C14.7904 10.1159 15.3633 9.67969 15.9883 9.36719C16.6263 9.05469 17.2513 8.82031 17.8633 8.66406C18.4753 8.50781 19.0417 8.41016 19.5625 8.37109C20.0964 8.33203 20.513 8.3125 20.8125 8.3125C21.112 8.3125 21.5221 8.33203 22.043 8.37109C22.5638 8.41016 23.1172 8.50781 23.7031 8.66406C24.3021 8.82031 24.901 9.05469 25.5 9.36719C26.112 9.67969 26.6589 10.1159 27.1406 10.6758C27.6354 11.2357 28.0391 11.9323 28.3516 12.7656C28.6641 13.599 28.8203 14.6146 28.8203 15.8125V20.6562C28.8203 21.8542 28.6641 22.8698 28.3516 23.7031C28.0391 24.5365 27.6354 25.2331 27.1406 25.793C26.6589 26.3529 26.112 26.7891 25.5 27.1016C24.901 27.4141 24.3021 27.6484 23.7031 27.8047C23.1172 27.9609 22.5638 28.0586 22.043 28.0977C21.5221 28.1367 21.112 28.1562 20.8125 28.1562C20.513 28.1562 20.0964 28.1367 19.5625 28.0977C19.0417 28.0586 18.4753 27.9609 17.8633 27.8047C17.2513 27.6484 16.6263 27.4141 15.9883 27.1016C15.3633 26.7891 14.7904 26.3529 14.2695 25.793C13.7617 25.2331 13.3451 24.5365 13.0195 23.7031C12.694 22.8698 12.5312 21.8542 12.5312 20.6562V15.8125ZM18.5469 22.0234C18.5599 22.401 18.651 22.7331 18.8203 23.0195C18.9635 23.2799 19.1849 23.5143 19.4844 23.7227C19.7969 23.918 20.2396 24.0156 20.8125 24.0156C21.3594 24.0156 21.776 23.918 22.0625 23.7227C22.362 23.5143 22.5833 23.2799 22.7266 23.0195C22.8828 22.7331 22.974 22.401 23 22.0234V14.9531C22.974 14.5625 22.8828 14.2044 22.7266 13.8789C22.5833 13.6185 22.362 13.3776 22.0625 13.1562C21.776 12.9219 21.3594 12.8047 20.8125 12.8047C20.2396 12.8047 19.7969 12.9219 19.4844 13.1562C19.1849 13.3776 18.9635 13.6185 18.8203 13.8789C18.651 14.2044 18.5599 14.5625 18.5469 14.9531V22.0234ZM49.2109 23.5469C49.2109 24.1068 49.1784 24.6536 49.1133 25.1875C49.0482 25.7214 48.9049 26.1966 48.6836 26.6133C48.4753 27.0299 48.1693 27.3685 47.7656 27.6289C47.375 27.8763 46.8411 28 46.1641 28C45.5 28 44.9727 27.8763 44.582 27.6289C44.1914 27.3685 43.8919 27.0299 43.6836 26.6133C43.4753 26.1966 43.3385 25.7214 43.2734 25.1875C43.2214 24.6536 43.1953 24.1068 43.1953 23.5469V15.9297C43.1953 15.5651 43.1758 15.207 43.1367 14.8555C43.1107 14.5039 43.0391 14.1979 42.9219 13.9375C42.8047 13.6641 42.6289 13.4492 42.3945 13.293C42.1732 13.1237 41.8672 13.0391 41.4766 13.0391C40.9427 13.0391 40.513 13.2148 40.1875 13.5664C39.862 13.918 39.6016 14.3997 39.4062 15.0117C39.224 15.6237 39.1003 16.3464 39.0352 17.1797C38.9701 18 38.9375 18.8854 38.9375 19.8359V23.5469C38.9375 24.1068 38.9049 24.6536 38.8398 25.1875C38.7747 25.7214 38.6315 26.1966 38.4102 26.6133C38.2018 27.0299 37.8958 27.3685 37.4922 27.6289C37.1016 27.8763 36.5677 28 35.8906 28C35.2266 28 34.6992 27.8763 34.3086 27.6289C33.918 27.3685 33.6185 27.0299 33.4102 26.6133C33.2018 26.1966 33.0651 25.7214 33 25.1875C32.9479 24.6536 32.9219 24.1068 32.9219 23.5469V12.8828C32.9219 12.3229 32.9414 11.7826 32.9805 11.2617C33.0195 10.7279 33.1367 10.2591 33.332 9.85547C33.5273 9.4388 33.8203 9.10677 34.2109 8.85938C34.6146 8.59896 35.1745 8.46875 35.8906 8.46875C36.6068 8.46875 37.1667 8.59245 37.5703 8.83984C37.974 9.07422 38.2734 9.36068 38.4688 9.69922C38.6771 10.0378 38.8073 10.3958 38.8594 10.7734C38.9115 11.151 38.9375 11.4766 38.9375 11.75C39.0417 11.3724 39.2044 10.9883 39.4258 10.5977C39.6471 10.207 39.9271 9.85547 40.2656 9.54297C40.6172 9.23047 41.0339 8.97656 41.5156 8.78125C41.9974 8.57292 42.5573 8.46875 43.1953 8.46875C43.9115 8.46875 44.6276 8.58594 45.3438 8.82031C46.0599 9.05469 46.7044 9.44531 47.2773 9.99219C47.8503 10.5391 48.3125 11.2552 48.6641 12.1406C49.0286 13.026 49.2109 14.1198 49.2109 15.4219V23.5469ZM54.4844 12.8438C54.4844 12.2969 54.5104 11.763 54.5625 11.2422C54.6276 10.7214 54.7643 10.2591 54.9727 9.85547C55.181 9.4388 55.4805 9.10677 55.8711 8.85938C56.2617 8.59896 56.7891 8.46875 57.4531 8.46875C58.1172 8.46875 58.6445 8.59896 59.0352 8.85938C59.4258 9.10677 59.7253 9.4388 59.9336 9.85547C60.1419 10.2591 60.2721 10.7214 60.3242 11.2422C60.3893 11.763 60.4219 12.2969 60.4219 12.8438V23.625C60.4219 24.1719 60.3893 24.7122 60.3242 25.2461C60.2721 25.7669 60.1419 26.2357 59.9336 26.6523C59.7253 27.056 59.4258 27.3815 59.0352 27.6289C58.6445 27.8763 58.1172 28 57.4531 28C56.7891 28 56.2617 27.8763 55.8711 27.6289C55.4805 27.3815 55.181 27.056 54.9727 26.6523C54.7643 26.2357 54.6276 25.7669 54.5625 25.2461C54.5104 24.7122 54.4844 24.1719 54.4844 23.625V12.8438ZM60.4609 3.625C60.4609 4.6276 60.2005 5.3763 59.6797 5.87109C59.1589 6.35286 58.4297 6.59375 57.4922 6.59375C56.5547 6.59375 55.8255 6.35286 55.3047 5.87109C54.7839 5.3763 54.5234 4.6276 54.5234 3.625C54.5234 2.58333 54.7839 1.82812 55.3047 1.35938C55.8255 0.890625 56.5547 0.65625 57.4922 0.65625C58.4948 0.65625 59.237 0.890625 59.7188 1.35938C60.2135 1.82812 60.4609 2.58333 60.4609 3.625ZM71.2812 21.2422C71.2812 21.4505 71.3008 21.7174 71.3398 22.043C71.3789 22.3555 71.4701 22.668 71.6133 22.9805C71.7565 23.2799 71.9648 23.5404 72.2383 23.7617C72.5247 23.9831 72.9089 24.0938 73.3906 24.0938C73.9635 24.0938 74.4128 24.0286 74.7383 23.8984C75.0638 23.7682 75.3047 23.5924 75.4609 23.3711C75.6172 23.1367 75.7148 22.8698 75.7539 22.5703C75.793 22.2578 75.8125 21.9323 75.8125 21.5938C75.8125 21.4245 75.8385 21.2357 75.8906 21.0273C75.9557 20.806 76.099 20.6042 76.3203 20.4219C76.5417 20.2266 76.8672 20.0703 77.2969 19.9531C77.7396 19.8229 78.3385 19.7578 79.0938 19.7578C79.7839 19.7578 80.3177 19.8359 80.6953 19.9922C81.0729 20.1484 81.3464 20.3372 81.5156 20.5586C81.6979 20.7669 81.8021 20.9883 81.8281 21.2227C81.8542 21.444 81.8672 21.6198 81.8672 21.75C81.8672 22.5833 81.737 23.319 81.4766 23.957C81.2292 24.582 80.8906 25.1289 80.4609 25.5977C80.0312 26.0534 79.5365 26.4375 78.9766 26.75C78.4167 27.0625 77.8177 27.3099 77.1797 27.4922C76.5547 27.6745 75.9167 27.8047 75.2656 27.8828C74.6146 27.9609 73.9896 28 73.3906 28C72.362 28 71.3659 27.8633 70.4023 27.5898C69.4388 27.3164 68.5794 26.8867 67.8242 26.3008C67.082 25.7148 66.4831 24.9661 66.0273 24.0547C65.5716 23.1302 65.3438 22.0234 65.3438 20.7344V16.1641C65.3438 14.9271 65.487 13.8789 65.7734 13.0195C66.0729 12.1602 66.457 11.444 66.9258 10.8711C67.3945 10.2982 67.9219 9.85547 68.5078 9.54297C69.0938 9.21745 69.6862 8.97656 70.2852 8.82031C70.8841 8.66406 71.4505 8.56641 71.9844 8.52734C72.5312 8.48828 73 8.46875 73.3906 8.46875C74.5495 8.46875 75.5586 8.56641 76.418 8.76172C77.2904 8.95703 78.0391 9.21745 78.6641 9.54297C79.2891 9.86849 79.8034 10.2461 80.207 10.6758C80.6237 11.0924 80.9492 11.5352 81.1836 12.0039C81.418 12.4727 81.5807 12.9414 81.6719 13.4102C81.776 13.8789 81.8281 14.3151 81.8281 14.7188C81.8281 14.9271 81.8151 15.1745 81.7891 15.4609C81.763 15.7344 81.6589 16.0013 81.4766 16.2617C81.3073 16.5091 81.0339 16.724 80.6562 16.9062C80.2786 17.0885 79.7448 17.1797 79.0547 17.1797C78.8073 17.1797 78.4948 17.1732 78.1172 17.1602C77.7526 17.1341 77.3945 17.0625 77.043 16.9453C76.6914 16.8281 76.3919 16.6458 76.1445 16.3984C75.8971 16.151 75.7734 15.7995 75.7734 15.3438C75.7734 15.0312 75.7539 14.7318 75.7148 14.4453C75.6888 14.1458 75.5977 13.8854 75.4414 13.6641C75.2852 13.4427 75.0443 13.2669 74.7188 13.1367C74.4062 12.9935 73.9635 12.9219 73.3906 12.9219C72.9089 12.9219 72.5247 13 72.2383 13.1562C71.9648 13.3125 71.7565 13.5078 71.6133 13.7422C71.4701 13.9766 71.3789 14.224 71.3398 14.4844C71.3008 14.7448 71.2812 14.9792 71.2812 15.1875V21.2422ZM11.3203 31.6562C11.8411 31.6562 12.3685 31.6823 12.9023 31.7344C13.4362 31.7865 13.918 31.9102 14.3477 32.1055C14.7773 32.3008 15.1289 32.5938 15.4023 32.9844C15.6758 33.362 15.8125 33.8828 15.8125 34.5469C15.8125 35.2109 15.6758 35.7383 15.4023 36.1289C15.1289 36.5065 14.7773 36.793 14.3477 36.9883C13.918 37.1836 13.4362 37.3073 12.9023 37.3594C12.3685 37.4115 11.8411 37.4375 11.3203 37.4375H6.67188V42.5156H9.13281C9.64062 42.5156 10.1615 42.5352 10.6953 42.5742C11.2292 42.6133 11.7109 42.724 12.1406 42.9062C12.5703 43.0885 12.9219 43.375 13.1953 43.7656C13.4818 44.1562 13.625 44.7031 13.625 45.4062C13.625 46.1094 13.4883 46.6562 13.2148 47.0469C12.9414 47.4375 12.5898 47.724 12.1602 47.9062C11.7305 48.0885 11.2487 48.1992 10.7148 48.2383C10.181 48.2773 9.65365 48.2969 9.13281 48.2969H6.67188V54.5078C6.67188 55.0807 6.65234 55.6341 6.61328 56.168C6.58724 56.7018 6.47656 57.1836 6.28125 57.6133C6.09896 58.0299 5.80599 58.3685 5.40234 58.6289C4.9987 58.8763 4.43229 59 3.70312 59C2.96094 59 2.38802 58.8763 1.98438 58.6289C1.58073 58.3685 1.28776 58.0299 1.10547 57.6133C0.923177 57.1836 0.8125 56.7018 0.773438 56.168C0.747396 55.6341 0.734375 55.0807 0.734375 54.5078V36.1484C0.734375 35.5885 0.747396 35.0417 0.773438 34.5078C0.8125 33.974 0.923177 33.4987 1.10547 33.082C1.28776 32.6523 1.58073 32.3073 1.98438 32.0469C2.38802 31.7865 2.96094 31.6562 3.70312 31.6562H11.3203ZM17.8438 46.8125C17.8438 45.6146 18.0065 44.599 18.332 43.7656C18.6576 42.9323 19.0742 42.2357 19.582 41.6758C20.1029 41.1159 20.6758 40.6797 21.3008 40.3672C21.9388 40.0547 22.5638 39.8203 23.1758 39.6641C23.7878 39.5078 24.3542 39.4102 24.875 39.3711C25.4089 39.332 25.8255 39.3125 26.125 39.3125C26.4245 39.3125 26.8346 39.332 27.3555 39.3711C27.8763 39.4102 28.4297 39.5078 29.0156 39.6641C29.6146 39.8203 30.2135 40.0547 30.8125 40.3672C31.4245 40.6797 31.9714 41.1159 32.4531 41.6758C32.9479 42.2357 33.3516 42.9323 33.6641 43.7656C33.9766 44.599 34.1328 45.6146 34.1328 46.8125V51.6562C34.1328 52.8542 33.9766 53.8698 33.6641 54.7031C33.3516 55.5365 32.9479 56.2331 32.4531 56.793C31.9714 57.3529 31.4245 57.7891 30.8125 58.1016C30.2135 58.4141 29.6146 58.6484 29.0156 58.8047C28.4297 58.9609 27.8763 59.0586 27.3555 59.0977C26.8346 59.1367 26.4245 59.1562 26.125 59.1562C25.8255 59.1562 25.4089 59.1367 24.875 59.0977C24.3542 59.0586 23.7878 58.9609 23.1758 58.8047C22.5638 58.6484 21.9388 58.4141 21.3008 58.1016C20.6758 57.7891 20.1029 57.3529 19.582 56.793C19.0742 56.2331 18.6576 55.5365 18.332 54.7031C18.0065 53.8698 17.8438 52.8542 17.8438 51.6562V46.8125ZM23.8594 53.0234C23.8724 53.401 23.9635 53.7331 24.1328 54.0195C24.276 54.2799 24.4974 54.5143 24.7969 54.7227C25.1094 54.918 25.5521 55.0156 26.125 55.0156C26.6719 55.0156 27.0885 54.918 27.375 54.7227C27.6745 54.5143 27.8958 54.2799 28.0391 54.0195C28.1953 53.7331 28.2865 53.401 28.3125 53.0234V45.9531C28.2865 45.5625 28.1953 45.2044 28.0391 44.8789C27.8958 44.6185 27.6745 44.3776 27.375 44.1562C27.0885 43.9219 26.6719 43.8047 26.125 43.8047C25.5521 43.8047 25.1094 43.9219 24.7969 44.1562C24.4974 44.3776 24.276 44.6185 24.1328 44.8789C23.9635 45.2044 23.8724 45.5625 23.8594 45.9531V53.0234ZM50.6953 42.3984C50.6953 43.4141 50.4414 44.1562 49.9336 44.625C49.4388 45.0938 48.7292 45.3281 47.8047 45.3281C47.6745 45.3281 47.4857 45.3411 47.2383 45.3672C47.0039 45.3802 46.75 45.4323 46.4766 45.5234C46.2031 45.6016 45.9232 45.7253 45.6367 45.8945C45.3633 46.0508 45.1094 46.2721 44.875 46.5586C44.6406 46.832 44.4518 47.1836 44.3086 47.6133C44.1654 48.043 44.0938 48.5573 44.0938 49.1562V54.7422C44.0938 55.276 44.0612 55.7969 43.9961 56.3047C43.944 56.8125 43.8138 57.2682 43.6055 57.6719C43.3971 58.0625 43.0977 58.3815 42.707 58.6289C42.3164 58.8763 41.7891 59 41.125 59C40.474 59 39.9596 58.8763 39.582 58.6289C39.2044 58.3815 38.9115 58.0625 38.7031 57.6719C38.5078 57.2682 38.3776 56.8125 38.3125 56.3047C38.2604 55.7969 38.2344 55.276 38.2344 54.7422V43.8047C38.2344 43.2578 38.2604 42.7305 38.3125 42.2227C38.3776 41.7018 38.5078 41.2396 38.7031 40.8359C38.9115 40.4323 39.2044 40.1133 39.582 39.8789C39.9596 39.6315 40.474 39.5078 41.125 39.5078C41.7891 39.5078 42.2969 39.6576 42.6484 39.957C43.013 40.2435 43.2799 40.6211 43.4492 41.0898C43.6185 41.5456 43.7161 42.0599 43.7422 42.6328C43.7682 43.1927 43.7812 43.7396 43.7812 44.2734H44.0938C44.276 43.5443 44.5169 42.8867 44.8164 42.3008C45.1159 41.7018 45.4479 41.2005 45.8125 40.7969C46.1771 40.3802 46.5677 40.0612 46.9844 39.8398C47.401 39.6185 47.8177 39.5078 48.2344 39.5078C48.7422 39.5078 49.1523 39.5664 49.4648 39.6836C49.7904 39.7878 50.0443 39.957 50.2266 40.1914C50.4089 40.4258 50.5326 40.7253 50.5977 41.0898C50.6628 41.4544 50.6953 41.8906 50.6953 42.3984ZM66.9062 59C66.2422 59 65.7148 58.8763 65.3242 58.6289C64.9336 58.3685 64.6341 58.0299 64.4258 57.6133C64.2174 57.1966 64.0807 56.7279 64.0156 56.207C63.9635 55.6732 63.9375 55.1328 63.9375 54.5859V46.8516C63.9375 46.5 63.918 46.1549 63.8789 45.8164C63.8529 45.4779 63.7812 45.1784 63.6641 44.918C63.5469 44.6576 63.3711 44.4492 63.1367 44.293C62.9154 44.1237 62.6094 44.0391 62.2188 44.0391C61.6979 44.0391 61.2747 44.2148 60.9492 44.5664C60.6237 44.918 60.3633 45.3997 60.168 46.0117C59.9857 46.6107 59.8555 47.3203 59.7773 48.1406C59.7122 48.9609 59.6797 49.8464 59.6797 50.7969V54.5859C59.6797 55.1328 59.6471 55.6732 59.582 56.207C59.5299 56.7279 59.3997 57.1966 59.1914 57.6133C58.9961 58.0299 58.7031 58.3685 58.3125 58.6289C57.9219 58.8763 57.388 59 56.7109 59C56.0339 59 55.5 58.8763 55.1094 58.6289C54.7188 58.3685 54.4193 58.0299 54.2109 57.6133C54.0156 57.1966 53.8854 56.7279 53.8203 56.207C53.7682 55.6732 53.7422 55.1328 53.7422 54.5859V43.8828C53.7422 43.3359 53.7617 42.8021 53.8008 42.2812C53.8529 41.7474 53.9766 41.2721 54.1719 40.8555C54.3672 40.4388 54.6602 40.1068 55.0508 39.8594C55.4544 39.599 56.0078 39.4688 56.7109 39.4688C57.4271 39.4688 57.9805 39.5924 58.3711 39.8398C58.7747 40.0742 59.0742 40.3672 59.2695 40.7188C59.4648 41.0573 59.582 41.4154 59.6211 41.793C59.6602 42.1706 59.6797 42.4896 59.6797 42.75C59.7969 42.3724 59.9792 41.9883 60.2266 41.5977C60.487 41.207 60.8125 40.8555 61.2031 40.543C61.5938 40.2305 62.043 39.9766 62.5508 39.7812C63.0586 39.5729 63.625 39.4688 64.25 39.4688C65.1094 39.4688 65.9427 39.6771 66.75 40.0938C67.5573 40.5104 68.2474 41.1875 68.8203 42.125C69.0156 41.6823 69.3021 41.2982 69.6797 40.9727C70.0573 40.6341 70.487 40.3542 70.9688 40.1328C71.4505 39.9115 71.9648 39.7487 72.5117 39.6445C73.0586 39.5273 73.599 39.4688 74.1328 39.4688C74.849 39.4688 75.5651 39.5859 76.2812 39.8203C76.9974 40.0547 77.6419 40.4453 78.2148 40.9922C78.7878 41.5391 79.25 42.2552 79.6016 43.1406C79.9661 44.013 80.1484 45.0938 80.1484 46.3828V54.5859C80.1484 55.1328 80.1159 55.6732 80.0508 56.207C79.9857 56.7279 79.849 57.1966 79.6406 57.6133C79.4323 58.0299 79.1263 58.3685 78.7227 58.6289C78.332 58.8763 77.8047 59 77.1406 59C76.4635 59 75.9232 58.8763 75.5195 58.6289C75.1289 58.3685 74.8294 58.0299 74.6211 57.6133C74.4128 57.1966 74.276 56.7279 74.2109 56.207C74.1589 55.6732 74.1328 55.1328 74.1328 54.5859V46.8516C74.1328 46.5 74.1133 46.1549 74.0742 45.8164C74.0352 45.4779 73.957 45.1784 73.8398 44.918C73.7227 44.6576 73.5469 44.4492 73.3125 44.293C73.0781 44.1237 72.7656 44.0391 72.375 44.0391C71.9583 44.0391 71.6003 44.1693 71.3008 44.4297C71.0143 44.6901 70.7734 45.0482 70.5781 45.5039C70.3828 45.9596 70.2331 46.5065 70.1289 47.1445C70.0247 47.7695 69.9531 48.4531 69.9141 49.1953V54.5859C69.9141 55.1328 69.8815 55.6732 69.8164 56.207C69.7643 56.7279 69.6341 57.1966 69.4258 57.6133C69.2174 58.0299 68.9115 58.3685 68.5078 58.6289C68.1172 58.8763 67.5833 59 66.9062 59ZM84.7578 43.9219C84.7578 43.362 84.7904 42.8151 84.8555 42.2812C84.9206 41.7474 85.0573 41.2721 85.2656 40.8555C85.487 40.4388 85.793 40.1068 86.1836 39.8594C86.5872 39.599 87.1276 39.4688 87.8047 39.4688C88.4688 39.4688 88.9961 39.599 89.3867 39.8594C89.7773 40.1068 90.0768 40.4388 90.2852 40.8555C90.4935 41.2721 90.6237 41.7474 90.6758 42.2812C90.7409 42.8151 90.7734 43.362 90.7734 43.9219V51.5391C90.7734 51.9167 90.7865 52.2812 90.8125 52.6328C90.8516 52.9714 90.9297 53.2773 91.0469 53.5508C91.1641 53.8112 91.3333 54.026 91.5547 54.1953C91.7891 54.3516 92.1016 54.4297 92.4922 54.4297C93.013 54.4297 93.4362 54.2539 93.7617 53.9023C94.1003 53.5508 94.3607 53.069 94.543 52.457C94.7383 51.8451 94.8685 51.1289 94.9336 50.3086C94.9987 49.4753 95.0312 48.5833 95.0312 47.6328V43.9219C95.0312 43.362 95.0638 42.8151 95.1289 42.2812C95.194 41.7474 95.3307 41.2721 95.5391 40.8555C95.7604 40.4388 96.0664 40.1068 96.457 39.8594C96.8607 39.599 97.401 39.4688 98.0781 39.4688C98.7422 39.4688 99.2695 39.599 99.6602 39.8594C100.051 40.1068 100.35 40.4388 100.559 40.8555C100.767 41.2721 100.897 41.7474 100.949 42.2812C101.014 42.8151 101.047 43.362 101.047 43.9219V54.5859C101.047 55.1458 101.027 55.6927 100.988 56.2266C100.949 56.7474 100.832 57.2161 100.637 57.6328C100.441 58.0365 100.142 58.3685 99.7383 58.6289C99.3477 58.8763 98.7943 59 98.0781 59C97.362 59 96.8021 58.8828 96.3984 58.6484C95.9948 58.401 95.6888 58.1081 95.4805 57.7695C95.2852 57.431 95.1615 57.0729 95.1094 56.6953C95.0573 56.3177 95.0312 55.9922 95.0312 55.7188C94.9271 56.0964 94.7643 56.4805 94.543 56.8711C94.3216 57.2617 94.0352 57.6133 93.6836 57.9258C93.3451 58.2383 92.9349 58.4987 92.4531 58.707C91.9714 58.9023 91.4115 59 90.7734 59C90.0573 59 89.3411 58.8828 88.625 58.6484C87.9089 58.4141 87.2643 58.0234 86.6914 57.4766C86.1185 56.9297 85.6497 56.2135 85.2852 55.3281C84.9336 54.4427 84.7578 53.349 84.7578 52.0469V43.9219ZM106.203 35.9922C106.203 35.4453 106.229 34.9115 106.281 34.3906C106.346 33.8698 106.483 33.4076 106.691 33.0039C106.9 32.6003 107.199 32.2747 107.59 32.0273C107.98 31.7799 108.508 31.6562 109.172 31.6562C109.849 31.6562 110.383 31.7799 110.773 32.0273C111.164 32.2747 111.457 32.6003 111.652 33.0039C111.861 33.4076 111.991 33.8698 112.043 34.3906C112.108 34.9115 112.141 35.4453 112.141 35.9922V54.625C112.141 55.1719 112.108 55.7122 112.043 56.2461C111.991 56.7669 111.861 57.2357 111.652 57.6523C111.457 58.056 111.164 58.3815 110.773 58.6289C110.383 58.8763 109.849 59 109.172 59C108.508 59 107.98 58.8763 107.59 58.6289C107.199 58.3815 106.9 58.056 106.691 57.6523C106.483 57.2357 106.346 56.7669 106.281 56.2461C106.229 55.7122 106.203 55.1719 106.203 54.625V35.9922ZM132.727 54.5859C132.727 55.1328 132.707 55.6732 132.668 56.207C132.629 56.7279 132.512 57.1966 132.316 57.6133C132.121 58.0299 131.828 58.3685 131.438 58.6289C131.047 58.8763 130.5 59 129.797 59C129.081 59 128.521 58.8828 128.117 58.6484C127.714 58.401 127.414 58.1081 127.219 57.7695C127.023 57.418 126.9 57.0534 126.848 56.6758C126.809 56.2982 126.789 55.9792 126.789 55.7188C126.672 56.0964 126.503 56.4805 126.281 56.8711C126.073 57.2617 125.799 57.6133 125.461 57.9258C125.122 58.2383 124.712 58.4987 124.23 58.707C123.762 58.9023 123.208 59 122.57 59C121.854 59 121.138 58.8828 120.422 58.6484C119.706 58.4141 119.061 58.0234 118.488 57.4766C117.915 56.9297 117.447 56.2201 117.082 55.3477C116.73 54.4622 116.555 53.375 116.555 52.0859V46.4219C116.555 45.1198 116.73 44.0326 117.082 43.1602C117.447 42.2747 117.915 41.5651 118.488 41.0312C119.061 40.4844 119.706 40.0938 120.422 39.8594C121.138 39.625 121.854 39.5078 122.57 39.5078C123.208 39.5078 123.762 39.6055 124.23 39.8008C124.712 39.9961 125.122 40.25 125.461 40.5625C125.799 40.875 126.073 41.2266 126.281 41.6172C126.503 42.0078 126.672 42.3984 126.789 42.7891C126.789 42.138 126.88 41.5977 127.062 41.168C127.245 40.7383 127.479 40.3997 127.766 40.1523C128.052 39.8919 128.371 39.7161 128.723 39.625C129.087 39.5208 129.445 39.4688 129.797 39.4688C130.448 39.4688 130.969 39.599 131.359 39.8594C131.75 40.1068 132.043 40.4388 132.238 40.8555C132.447 41.2591 132.577 41.7344 132.629 42.2812C132.694 42.8151 132.727 43.362 132.727 43.9219V54.5859ZM122.57 51.5781C122.57 51.9297 122.583 52.2747 122.609 52.6133C122.635 52.9518 122.707 53.2578 122.824 53.5312C122.941 53.8047 123.111 54.026 123.332 54.1953C123.566 54.3516 123.885 54.4297 124.289 54.4297C124.797 54.4297 125.207 54.319 125.52 54.0977C125.845 53.8633 126.099 53.5117 126.281 53.043C126.464 52.5612 126.587 51.9622 126.652 51.2461C126.73 50.5169 126.776 49.651 126.789 48.6484C126.789 48.2448 126.75 47.7826 126.672 47.2617C126.607 46.7279 126.483 46.2266 126.301 45.7578C126.118 45.2891 125.865 44.8919 125.539 44.5664C125.214 44.2409 124.797 44.0781 124.289 44.0781C123.885 44.0781 123.566 44.1628 123.332 44.332C123.111 44.4883 122.941 44.6966 122.824 44.957C122.707 45.2174 122.635 45.5169 122.609 45.8555C122.583 46.181 122.57 46.513 122.57 46.8516V51.5781ZM6.71094 79.2188V85.5469C6.71094 86.1068 6.69141 86.6536 6.65234 87.1875C6.6263 87.7214 6.51562 88.1966 6.32031 88.6133C6.13802 89.0299 5.84505 89.3685 5.44141 89.6289C5.03776 89.8763 4.45833 90 3.70312 90C2.97396 90 2.40755 89.8763 2.00391 89.6289C1.61328 89.3685 1.32682 89.0299 1.14453 88.6133C0.96224 88.1966 0.851562 87.7214 0.8125 87.1875C0.786458 86.6536 0.773438 86.1068 0.773438 85.5469V67.1094C0.773438 66.5495 0.786458 66.0026 0.8125 65.4688C0.851562 64.9349 0.96224 64.4596 1.14453 64.043C1.32682 63.6263 1.61328 63.2943 2.00391 63.0469C2.40755 62.7865 2.97396 62.6562 3.70312 62.6562H10.1484C11.763 62.7344 13.2083 63.0729 14.4844 63.6719C15.0312 63.9323 15.5586 64.2578 16.0664 64.6484C16.5872 65.0391 17.0495 65.5208 17.4531 66.0938C17.8698 66.6536 18.2018 67.3242 18.4492 68.1055C18.6966 68.8737 18.8203 69.7656 18.8203 70.7812C18.8203 72.1745 18.599 73.3984 18.1562 74.4531C17.7266 75.4948 17.0951 76.3737 16.2617 77.0898C15.4414 77.793 14.4323 78.3268 13.2344 78.6914C12.0495 79.043 10.7083 79.2188 9.21094 79.2188H6.71094ZM9.36719 74.5703C10.0182 74.5312 10.6042 74.375 11.125 74.1016C11.3464 73.9844 11.5612 73.8346 11.7695 73.6523C11.9779 73.4701 12.1667 73.2487 12.3359 72.9883C12.5052 72.7148 12.6354 72.3958 12.7266 72.0312C12.8307 71.6667 12.8828 71.25 12.8828 70.7812C12.8828 70.3385 12.8307 69.9544 12.7266 69.6289C12.6354 69.2904 12.5117 69.0039 12.3555 68.7695C12.1992 68.5221 12.0234 68.3138 11.8281 68.1445C11.6328 67.9753 11.431 67.832 11.2227 67.7148C10.7279 67.4674 10.1745 67.3177 9.5625 67.2656H6.71094V74.5703H9.36719ZM34.1719 73.3984C34.1719 74.4141 33.918 75.1562 33.4102 75.625C32.9154 76.0938 32.2057 76.3281 31.2812 76.3281C31.151 76.3281 30.9622 76.3411 30.7148 76.3672C30.4805 76.3802 30.2266 76.4323 29.9531 76.5234C29.6797 76.6016 29.3997 76.7253 29.1133 76.8945C28.8398 77.0508 28.5859 77.2721 28.3516 77.5586C28.1172 77.832 27.9284 78.1836 27.7852 78.6133C27.6419 79.043 27.5703 79.5573 27.5703 80.1562V85.7422C27.5703 86.276 27.5378 86.7969 27.4727 87.3047C27.4206 87.8125 27.2904 88.2682 27.082 88.6719C26.8737 89.0625 26.5742 89.3815 26.1836 89.6289C25.793 89.8763 25.2656 90 24.6016 90C23.9505 90 23.4362 89.8763 23.0586 89.6289C22.681 89.3815 22.388 89.0625 22.1797 88.6719C21.9844 88.2682 21.8542 87.8125 21.7891 87.3047C21.737 86.7969 21.7109 86.276 21.7109 85.7422V74.8047C21.7109 74.2578 21.737 73.7305 21.7891 73.2227C21.8542 72.7018 21.9844 72.2396 22.1797 71.8359C22.388 71.4323 22.681 71.1133 23.0586 70.8789C23.4362 70.6315 23.9505 70.5078 24.6016 70.5078C25.2656 70.5078 25.7734 70.6576 26.125 70.957C26.4896 71.2435 26.7565 71.6211 26.9258 72.0898C27.0951 72.5456 27.1927 73.0599 27.2188 73.6328C27.2448 74.1927 27.2578 74.7396 27.2578 75.2734H27.5703C27.7526 74.5443 27.9935 73.8867 28.293 73.3008C28.5924 72.7018 28.9245 72.2005 29.2891 71.7969C29.6536 71.3802 30.0443 71.0612 30.4609 70.8398C30.8776 70.6185 31.2943 70.5078 31.7109 70.5078C32.2188 70.5078 32.6289 70.5664 32.9414 70.6836C33.2669 70.7878 33.5208 70.957 33.7031 71.1914C33.8854 71.4258 34.0091 71.7253 34.0742 72.0898C34.1393 72.4544 34.1719 72.8906 34.1719 73.3984ZM52.4141 85.5859C52.4141 86.1328 52.3945 86.6732 52.3555 87.207C52.3164 87.7279 52.1992 88.1966 52.0039 88.6133C51.8086 89.0299 51.5156 89.3685 51.125 89.6289C50.7344 89.8763 50.1875 90 49.4844 90C48.7682 90 48.2083 89.8828 47.8047 89.6484C47.401 89.401 47.1016 89.1081 46.9062 88.7695C46.7109 88.418 46.5872 88.0534 46.5352 87.6758C46.4961 87.2982 46.4766 86.9792 46.4766 86.7188C46.3594 87.0964 46.1901 87.4805 45.9688 87.8711C45.7604 88.2617 45.487 88.6133 45.1484 88.9258C44.8099 89.2383 44.3997 89.4987 43.918 89.707C43.4492 89.9023 42.8958 90 42.2578 90C41.5417 90 40.8255 89.8828 40.1094 89.6484C39.3932 89.4141 38.7487 89.0234 38.1758 88.4766C37.6029 87.9297 37.1341 87.2201 36.7695 86.3477C36.418 85.4622 36.2422 84.375 36.2422 83.0859V77.4219C36.2422 76.1198 36.418 75.0326 36.7695 74.1602C37.1341 73.2747 37.6029 72.5651 38.1758 72.0312C38.7487 71.4844 39.3932 71.0938 40.1094 70.8594C40.8255 70.625 41.5417 70.5078 42.2578 70.5078C42.8958 70.5078 43.4492 70.6055 43.918 70.8008C44.3997 70.9961 44.8099 71.25 45.1484 71.5625C45.487 71.875 45.7604 72.2266 45.9688 72.6172C46.1901 73.0078 46.3594 73.3984 46.4766 73.7891C46.4766 73.138 46.5677 72.5977 46.75 72.168C46.9323 71.7383 47.1667 71.3997 47.4531 71.1523C47.7396 70.8919 48.0586 70.7161 48.4102 70.625C48.7747 70.5208 49.1328 70.4688 49.4844 70.4688C50.1354 70.4688 50.6562 70.599 51.0469 70.8594C51.4375 71.1068 51.7305 71.4388 51.9258 71.8555C52.1341 72.2591 52.2643 72.7344 52.3164 73.2812C52.3815 73.8151 52.4141 74.362 52.4141 74.9219V85.5859ZM42.2578 82.5781C42.2578 82.9297 42.2708 83.2747 42.2969 83.6133C42.3229 83.9518 42.3945 84.2578 42.5117 84.5312C42.6289 84.8047 42.7982 85.026 43.0195 85.1953C43.2539 85.3516 43.5729 85.4297 43.9766 85.4297C44.4844 85.4297 44.8945 85.319 45.207 85.0977C45.5326 84.8633 45.7865 84.5117 45.9688 84.043C46.151 83.5612 46.2747 82.9622 46.3398 82.2461C46.418 81.5169 46.4635 80.651 46.4766 79.6484C46.4766 79.2448 46.4375 78.7826 46.3594 78.2617C46.2943 77.7279 46.1706 77.2266 45.9883 76.7578C45.806 76.2891 45.5521 75.8919 45.2266 75.5664C44.901 75.2409 44.4844 75.0781 43.9766 75.0781C43.5729 75.0781 43.2539 75.1628 43.0195 75.332C42.7982 75.4883 42.6289 75.6966 42.5117 75.957C42.3945 76.2174 42.3229 76.5169 42.2969 76.8555C42.2708 77.181 42.2578 77.513 42.2578 77.8516V82.5781ZM62.1016 83.2422C62.1016 83.4505 62.1211 83.7174 62.1602 84.043C62.1992 84.3555 62.2904 84.668 62.4336 84.9805C62.5768 85.2799 62.7852 85.5404 63.0586 85.7617C63.3451 85.9831 63.7292 86.0938 64.2109 86.0938C64.7839 86.0938 65.2331 86.0286 65.5586 85.8984C65.8841 85.7682 66.125 85.5924 66.2812 85.3711C66.4375 85.1367 66.5352 84.8698 66.5742 84.5703C66.6133 84.2578 66.6328 83.9323 66.6328 83.5938C66.6328 83.4245 66.6589 83.2357 66.7109 83.0273C66.776 82.806 66.9193 82.6042 67.1406 82.4219C67.362 82.2266 67.6875 82.0703 68.1172 81.9531C68.5599 81.8229 69.1589 81.7578 69.9141 81.7578C70.6042 81.7578 71.138 81.8359 71.5156 81.9922C71.8932 82.1484 72.1667 82.3372 72.3359 82.5586C72.5182 82.7669 72.6224 82.9883 72.6484 83.2227C72.6745 83.444 72.6875 83.6198 72.6875 83.75C72.6875 84.5833 72.5573 85.319 72.2969 85.957C72.0495 86.582 71.7109 87.1289 71.2812 87.5977C70.8516 88.0534 70.3568 88.4375 69.7969 88.75C69.237 89.0625 68.638 89.3099 68 89.4922C67.375 89.6745 66.737 89.8047 66.0859 89.8828C65.4349 89.9609 64.8099 90 64.2109 90C63.1823 90 62.1862 89.8633 61.2227 89.5898C60.2591 89.3164 59.3997 88.8867 58.6445 88.3008C57.9023 87.7148 57.3034 86.9661 56.8477 86.0547C56.3919 85.1302 56.1641 84.0234 56.1641 82.7344V78.1641C56.1641 76.9271 56.3073 75.8789 56.5938 75.0195C56.8932 74.1602 57.2773 73.444 57.7461 72.8711C58.2148 72.2982 58.7422 71.8555 59.3281 71.543C59.9141 71.2174 60.5065 70.9766 61.1055 70.8203C61.7044 70.6641 62.2708 70.5664 62.8047 70.5273C63.3516 70.4883 63.8203 70.4688 64.2109 70.4688C65.3698 70.4688 66.3789 70.5664 67.2383 70.7617C68.1107 70.957 68.8594 71.2174 69.4844 71.543C70.1094 71.8685 70.6237 72.2461 71.0273 72.6758C71.444 73.0924 71.7695 73.5352 72.0039 74.0039C72.2383 74.4727 72.401 74.9414 72.4922 75.4102C72.5964 75.8789 72.6484 76.3151 72.6484 76.7188C72.6484 76.9271 72.6354 77.1745 72.6094 77.4609C72.5833 77.7344 72.4792 78.0013 72.2969 78.2617C72.1276 78.5091 71.8542 78.724 71.4766 78.9062C71.099 79.0885 70.5651 79.1797 69.875 79.1797C69.6276 79.1797 69.3151 79.1732 68.9375 79.1602C68.5729 79.1341 68.2148 79.0625 67.8633 78.9453C67.5117 78.8281 67.2122 78.6458 66.9648 78.3984C66.7174 78.151 66.5938 77.7995 66.5938 77.3438C66.5938 77.0312 66.5742 76.7318 66.5352 76.4453C66.5091 76.1458 66.418 75.8854 66.2617 75.6641C66.1055 75.4427 65.8646 75.2669 65.5391 75.1367C65.2266 74.9935 64.7839 74.9219 64.2109 74.9219C63.7292 74.9219 63.3451 75 63.0586 75.1562C62.7852 75.3125 62.5768 75.5078 62.4336 75.7422C62.2904 75.9766 62.1992 76.224 62.1602 76.4844C62.1211 76.7448 62.1016 76.9792 62.1016 77.1875V83.2422ZM79.0938 70.4688V67.0312C79.0938 66.4844 79.1198 65.9505 79.1719 65.4297C79.237 64.9089 79.3737 64.4466 79.582 64.043C79.7904 63.6263 80.0898 63.2943 80.4805 63.0469C80.8711 62.7865 81.3984 62.6562 82.0625 62.6562C82.7135 62.6562 83.2344 62.7865 83.625 63.0469C84.0156 63.2943 84.3086 63.6263 84.5039 64.043C84.7122 64.4466 84.8424 64.9089 84.8945 65.4297C84.9596 65.9505 84.9922 66.4844 84.9922 67.0312V70.4688H86.5938C86.9323 70.4688 87.2708 70.4883 87.6094 70.5273C87.9479 70.5534 88.2474 70.6445 88.5078 70.8008C88.7812 70.957 88.9961 71.1914 89.1523 71.5039C89.3216 71.8164 89.4062 72.2526 89.4062 72.8125C89.4062 73.3464 89.3216 73.7695 89.1523 74.082C88.9961 74.3945 88.7812 74.6289 88.5078 74.7852C88.2474 74.9414 87.9479 75.0456 87.6094 75.0977C87.2708 75.1367 86.9323 75.1562 86.5938 75.1562H84.9922V81.9922C84.9922 82.2526 84.9987 82.5326 85.0117 82.832C85.0378 83.1185 85.1094 83.3854 85.2266 83.6328C85.3438 83.8802 85.5195 84.0885 85.7539 84.2578C85.9883 84.4141 86.3203 84.4922 86.75 84.4922C87.2188 84.4922 87.6159 84.5312 87.9414 84.6094C88.2799 84.6745 88.5534 84.7982 88.7617 84.9805C88.9831 85.1628 89.1458 85.4167 89.25 85.7422C89.3542 86.0677 89.4062 86.4844 89.4062 86.9922C89.4062 87.513 89.2826 87.9622 89.0352 88.3398C88.8008 88.7174 88.4818 89.0299 88.0781 89.2773C87.6745 89.5247 87.2057 89.707 86.6719 89.8242C86.138 89.9414 85.5781 90 84.9922 90C84.0677 90 83.2734 89.9023 82.6094 89.707C81.9583 89.5117 81.4115 89.2383 80.9688 88.8867C80.5391 88.5221 80.194 88.0924 79.9336 87.5977C79.6862 87.0898 79.4974 86.5234 79.3672 85.8984C79.25 85.2734 79.1719 84.6029 79.1328 83.8867C79.1068 83.1576 79.0938 82.3958 79.0938 81.6016V75.1562H78C77.6615 75.1562 77.3229 75.1367 76.9844 75.0977C76.6589 75.0456 76.3659 74.9414 76.1055 74.7852C75.8451 74.6289 75.6302 74.3945 75.4609 74.082C75.3047 73.7695 75.2266 73.3464 75.2266 72.8125C75.2266 72.2526 75.3047 71.8164 75.4609 71.5039C75.6302 71.1914 75.8451 70.957 76.1055 70.8008C76.3659 70.6445 76.6589 70.5534 76.9844 70.5273C77.3229 70.4883 77.6615 70.4688 78 70.4688H79.0938ZM94.0547 74.8438C94.0547 74.2969 94.0807 73.763 94.1328 73.2422C94.1979 72.7214 94.3346 72.2591 94.543 71.8555C94.7513 71.4388 95.0508 71.1068 95.4414 70.8594C95.832 70.599 96.3594 70.4688 97.0234 70.4688C97.6875 70.4688 98.2148 70.599 98.6055 70.8594C98.9961 71.1068 99.2956 71.4388 99.5039 71.8555C99.7122 72.2591 99.8424 72.7214 99.8945 73.2422C99.9596 73.763 99.9922 74.2969 99.9922 74.8438V85.625C99.9922 86.1719 99.9596 86.7122 99.8945 87.2461C99.8424 87.7669 99.7122 88.2357 99.5039 88.6523C99.2956 89.056 98.9961 89.3815 98.6055 89.6289C98.2148 89.8763 97.6875 90 97.0234 90C96.3594 90 95.832 89.8763 95.4414 89.6289C95.0508 89.3815 94.7513 89.056 94.543 88.6523C94.3346 88.2357 94.1979 87.7669 94.1328 87.2461C94.0807 86.7122 94.0547 86.1719 94.0547 85.625V74.8438ZM100.031 65.625C100.031 66.6276 99.7708 67.3763 99.25 67.8711C98.7292 68.3529 98 68.5938 97.0625 68.5938C96.125 68.5938 95.3958 68.3529 94.875 67.8711C94.3542 67.3763 94.0938 66.6276 94.0938 65.625C94.0938 64.5833 94.3542 63.8281 94.875 63.3594C95.3958 62.8906 96.125 62.6562 97.0625 62.6562C98.0651 62.6562 98.8073 62.8906 99.2891 63.3594C99.7839 63.8281 100.031 64.5833 100.031 65.625ZM110.852 83.2422C110.852 83.4505 110.871 83.7174 110.91 84.043C110.949 84.3555 111.04 84.668 111.184 84.9805C111.327 85.2799 111.535 85.5404 111.809 85.7617C112.095 85.9831 112.479 86.0938 112.961 86.0938C113.534 86.0938 113.983 86.0286 114.309 85.8984C114.634 85.7682 114.875 85.5924 115.031 85.3711C115.188 85.1367 115.285 84.8698 115.324 84.5703C115.363 84.2578 115.383 83.9323 115.383 83.5938C115.383 83.4245 115.409 83.2357 115.461 83.0273C115.526 82.806 115.669 82.6042 115.891 82.4219C116.112 82.2266 116.438 82.0703 116.867 81.9531C117.31 81.8229 117.909 81.7578 118.664 81.7578C119.354 81.7578 119.888 81.8359 120.266 81.9922C120.643 82.1484 120.917 82.3372 121.086 82.5586C121.268 82.7669 121.372 82.9883 121.398 83.2227C121.424 83.444 121.438 83.6198 121.438 83.75C121.438 84.5833 121.307 85.319 121.047 85.957C120.799 86.582 120.461 87.1289 120.031 87.5977C119.602 88.0534 119.107 88.4375 118.547 88.75C117.987 89.0625 117.388 89.3099 116.75 89.4922C116.125 89.6745 115.487 89.8047 114.836 89.8828C114.185 89.9609 113.56 90 112.961 90C111.932 90 110.936 89.8633 109.973 89.5898C109.009 89.3164 108.15 88.8867 107.395 88.3008C106.652 87.7148 106.053 86.9661 105.598 86.0547C105.142 85.1302 104.914 84.0234 104.914 82.7344V78.1641C104.914 76.9271 105.057 75.8789 105.344 75.0195C105.643 74.1602 106.027 73.444 106.496 72.8711C106.965 72.2982 107.492 71.8555 108.078 71.543C108.664 71.2174 109.257 70.9766 109.855 70.8203C110.454 70.6641 111.021 70.5664 111.555 70.5273C112.102 70.4883 112.57 70.4688 112.961 70.4688C114.12 70.4688 115.129 70.5664 115.988 70.7617C116.861 70.957 117.609 71.2174 118.234 71.543C118.859 71.8685 119.374 72.2461 119.777 72.6758C120.194 73.0924 120.52 73.5352 120.754 74.0039C120.988 74.4727 121.151 74.9414 121.242 75.4102C121.346 75.8789 121.398 76.3151 121.398 76.7188C121.398 76.9271 121.385 77.1745 121.359 77.4609C121.333 77.7344 121.229 78.0013 121.047 78.2617C120.878 78.5091 120.604 78.724 120.227 78.9062C119.849 79.0885 119.315 79.1797 118.625 79.1797C118.378 79.1797 118.065 79.1732 117.688 79.1602C117.323 79.1341 116.965 79.0625 116.613 78.9453C116.262 78.8281 115.962 78.6458 115.715 78.3984C115.467 78.151 115.344 77.7995 115.344 77.3438C115.344 77.0312 115.324 76.7318 115.285 76.4453C115.259 76.1458 115.168 75.8854 115.012 75.6641C114.855 75.4427 114.615 75.2669 114.289 75.1367C113.977 74.9935 113.534 74.9219 112.961 74.9219C112.479 74.9219 112.095 75 111.809 75.1562C111.535 75.3125 111.327 75.5078 111.184 75.7422C111.04 75.9766 110.949 76.224 110.91 76.4844C110.871 76.7448 110.852 76.9792 110.852 77.1875V83.2422ZM141.086 78.8672C141.086 79.0755 141.073 79.3229 141.047 79.6094C141.021 79.8828 140.917 80.1497 140.734 80.4102C140.565 80.6576 140.292 80.8724 139.914 81.0547C139.536 81.237 139.003 81.3281 138.312 81.3281H130.539V83.2031C130.539 83.5156 130.578 83.8411 130.656 84.1797C130.734 84.5182 130.865 84.8307 131.047 85.1172C131.242 85.4036 131.496 85.638 131.809 85.8203C132.121 86.0026 132.505 86.0938 132.961 86.0938C133.482 86.0938 133.879 86.0352 134.152 85.918C134.439 85.7878 134.66 85.6315 134.816 85.4492C134.986 85.2669 135.135 85.0716 135.266 84.8633C135.396 84.6549 135.565 84.4596 135.773 84.2773C135.995 84.0951 136.294 83.9453 136.672 83.8281C137.062 83.6979 137.596 83.6328 138.273 83.6328C138.599 83.6328 138.911 83.6589 139.211 83.7109C139.523 83.763 139.797 83.8607 140.031 84.0039C140.266 84.1471 140.454 84.349 140.598 84.6094C140.741 84.8568 140.812 85.1823 140.812 85.5859C140.812 86.4323 140.546 87.1419 140.012 87.7148C139.478 88.2747 138.807 88.724 138 89.0625C137.193 89.401 136.314 89.6419 135.363 89.7852C134.426 89.9284 133.547 90 132.727 90C131.646 89.987 130.617 89.8503 129.641 89.5898C128.664 89.3294 127.798 88.9128 127.043 88.3398C126.301 87.7669 125.708 87.0182 125.266 86.0938C124.823 85.1693 124.602 84.0365 124.602 82.6953V78.125C124.602 76.888 124.745 75.8398 125.031 74.9805C125.331 74.1211 125.715 73.4049 126.184 72.832C126.652 72.2591 127.18 71.8164 127.766 71.5039C128.352 71.1784 128.944 70.9375 129.543 70.7812C130.142 70.625 130.708 70.5273 131.242 70.4883C131.789 70.4492 132.258 70.4297 132.648 70.4297C133.964 70.4297 135.083 70.5469 136.008 70.7812C136.945 71.0156 137.727 71.3216 138.352 71.6992C138.977 72.0768 139.471 72.513 139.836 73.0078C140.201 73.5026 140.474 74.0169 140.656 74.5508C140.839 75.0716 140.956 75.6055 141.008 76.1523C141.06 76.6862 141.086 77.1875 141.086 77.6562V78.8672ZM130.539 78.3984H135.422C135.422 77.7865 135.402 77.2461 135.363 76.7773C135.337 76.2956 135.24 75.8919 135.07 75.5664C134.914 75.2409 134.66 74.9935 134.309 74.8242C133.97 74.6549 133.482 74.5703 132.844 74.5703C132.31 74.5703 131.887 74.6549 131.574 74.8242C131.275 74.9935 131.047 75.2083 130.891 75.4688C130.734 75.7161 130.637 75.9831 130.598 76.2695C130.559 76.556 130.539 76.8099 130.539 77.0312V78.3984Z" fill="#D9D9D9"/>
</svg>
